<?xml version="1.0" encoding="utf-8"?>
<!-- Generator: Adobe Illustrator 21.0.0, SVG Export Plug-In . SVG Version: 6.00 Build 0)  -->
<svg version="1.1" id="Слой_1" xmlns="http://www.w3.org/2000/svg" xmlns:xlink="http://www.w3.org/1999/xlink" x="0px" y="0px"
	 viewBox="0 0 396.8 396.8" style="enable-background:new 0 0 396.8 396.8;" xml:space="preserve" fill="#158cfd">
<g>
	<path d="M300.8,89.6c-3.5,0-6.4-2.9-6.4-6.4c0-3.5,2.9-6.4,6.4-6.4c3.5,0,6.4,2.9,6.4,6.4H320c0-8.3-5.4-15.4-12.8-18v-14h-12.8v14
		c-7.4,2.7-12.8,9.7-12.8,18c0,10.6,8.6,19.2,19.2,19.2c3.5,0,6.4,2.9,6.4,6.4c0,3.5-2.9,6.4-6.4,6.4c-3.5,0-6.4-2.9-6.4-6.4h-12.8
		c0,8.3,5.4,15.4,12.8,18v14h12.8v-14c7.4-2.7,12.8-9.7,12.8-18C320,98.2,311.4,89.6,300.8,89.6L300.8,89.6z M300.8,89.6"/>
	<path d="M300.8,25.6c-38.8,0-70.4,31.6-70.4,70.4s31.6,70.4,70.4,70.4c38.8,0,70.4-31.6,70.4-70.4S339.6,25.6,300.8,25.6
		L300.8,25.6z M300.8,153.6c-31.8,0-57.6-25.8-57.6-57.6s25.8-57.6,57.6-57.6c31.8,0,57.6,25.8,57.6,57.6S332.6,153.6,300.8,153.6
		L300.8,153.6z M300.8,153.6"/>
	<path d="M396.8,96c0-52.9-43.1-96-96-96c-52.9,0-96,43.1-96,96c0,41.7,26.8,77.2,64,90.4v18.4H256v12.8h12.8v96
		c0,17.6,14.4,32,32,32c17.6,0,32-14.4,32-32v-96h12.8v-12.8h-12.8v-18.4C370,173.2,396.8,137.7,396.8,96L396.8,96z M320,313.6
		c0,10.6-8.6,19.2-19.2,19.2c-10.6,0-19.2-8.6-19.2-19.2v-96H320V313.6z M320,204.8h-38.4v-14.7c6.2,1.3,12.6,1.9,19.2,1.9
		c6.6,0,13-0.7,19.2-1.9V204.8z M300.8,179.2c-45.9,0-83.2-37.3-83.2-83.2s37.3-83.2,83.2-83.2c45.9,0,83.2,37.3,83.2,83.2
		S346.7,179.2,300.8,179.2L300.8,179.2z M300.8,179.2"/>
	<path d="M230.4,305.8v-48.4l-24.1-6.1c-1.5-4.4-3.2-8.7-5.3-12.8l12.8-21.3L179.5,183l-21.3,12.8c-4.1-2-8.4-3.8-12.8-5.3
		l-6.1-24.1H91l-6.1,24.1c-4.4,1.5-8.7,3.2-12.8,5.3L50.9,183l-34.2,34.2l12.8,21.3c-2,4.1-3.8,8.4-5.3,12.8L0,257.4v48.4l24.1,6.1
		c1.5,4.4,3.2,8.7,5.3,12.8L16.6,346l34.2,34.2l21.3-12.8c4.1,2,8.4,3.8,12.8,5.3l6.1,24.1h48.4l6.1-24.1c4.4-1.5,8.7-3.2,12.8-5.3
		l21.3,12.8l34.2-34.2L201,324.6c2-4.1,3.8-8.4,5.3-12.8L230.4,305.8z M197.7,344l-20.1,20.1l-19-11.4l-3.2,1.8
		c-5.3,2.9-11,5.3-17,7l-3.5,1l-5.4,21.5H101l-5.4-21.5l-3.5-1c-6-1.7-11.7-4.1-17-7l-3.2-1.8l-19,11.4L32.7,344l11.4-19l-1.8-3.2
		c-2.9-5.3-5.3-11-7-17l-1-3.5l-21.5-5.4v-28.4l21.5-5.4l1-3.5c1.7-6,4.1-11.7,7-17l1.8-3.2l-11.4-19l20.1-20.1l19,11.4l3.2-1.8
		c5.3-2.9,11-5.3,17-7l3.5-1l5.4-21.5h28.4l5.4,21.5l3.5,1c6,1.7,11.7,4.1,17,7l3.2,1.8l19-11.4l20.1,20.1l-11.4,19l1.8,3.2
		c2.9,5.3,5.3,11,7,17l1,3.5l21.5,5.4v28.4l-21.5,5.4l-1,3.5c-1.7,6-4.1,11.7-7,17l-1.8,3.2L197.7,344z M197.7,344"/>
	<path d="M115.2,211.2c-38.8,0-70.4,31.6-70.4,70.4c0,38.8,31.6,70.4,70.4,70.4c38.8,0,70.4-31.6,70.4-70.4
		C185.6,242.8,154,211.2,115.2,211.2L115.2,211.2z M115.2,339.2c-31.8,0-57.6-25.8-57.6-57.6c0-31.8,25.8-57.6,57.6-57.6
		c31.8,0,57.6,25.8,57.6,57.6C172.8,313.4,147,339.2,115.2,339.2L115.2,339.2z M115.2,339.2"/>
	<path d="M115.2,249.6c-17.6,0-32,14.4-32,32H96c0-10.6,8.6-19.2,19.2-19.2s19.2,8.6,19.2,19.2c0,10.6-8.6,19.2-19.2,19.2v12.8
		c17.6,0,32-14.4,32-32C147.2,264,132.8,249.6,115.2,249.6L115.2,249.6z M115.2,249.6"/>
	<path d="M51.2,51.2V25.6H38.4v25.6H25.6V128h12.8v25.6h12.8V128H64V51.2H51.2z M51.2,115.2H38.4V64h12.8V115.2z M51.2,115.2"/>
	<path d="M115.2,25.6V0h-12.8v25.6H89.6V64h12.8v64h12.8V64H128V25.6H115.2z M115.2,51.2h-12.8V38.4h12.8V51.2z M115.2,51.2"/>
	<path d="M179.2,96V44.8h-12.8V96h-12.8v51.2h12.8v25.6h12.8v-25.6H192V96H179.2z M179.2,134.4h-12.8v-25.6h12.8V134.4z
		 M179.2,134.4"/>
</g>
</svg>
