<?xml version="1.0" encoding="utf-8"?>
<!-- Generator: Adobe Illustrator 21.0.0, SVG Export Plug-In . SVG Version: 6.00 Build 0)  -->
<svg version="1.1" id="Слой_1" xmlns="http://www.w3.org/2000/svg" xmlns:xlink="http://www.w3.org/1999/xlink" x="0px" y="0px"
	 viewBox="0 0 512 512" style="enable-background:new 0 0 512 512;" xml:space="preserve" fill="#158cfd">
<g>
	<path d="M470.7,82.6h-24.8V0H66.1v82.6H41.3C18.5,82.6,0,101.1,0,123.9v264.3c0,22.8,18.5,41.3,41.3,41.3h156.9v17.4L49.5,463.3
		V512h412.9v-48.7l-148.6-16.5v-17.4h156.9c22.8,0,41.3-18.5,41.3-41.3V123.9C512,101.1,493.5,82.6,470.7,82.6L470.7,82.6z
		 M198.2,495.5H66.1v-17.4l132.1-14.7V495.5z M82.6,16.5h346.8v297.3H82.6V16.5z M297.3,495.5h-82.6v-66.1h82.6V495.5z M445.9,478.1
		v17.4H313.8v-32.1L445.9,478.1z M495.5,388.1c0,13.7-11.1,24.8-24.8,24.8H41.3c-13.7,0-24.8-11.1-24.8-24.8v-8.3h479V388.1z
		 M495.5,363.4h-479V123.9c0-13.7,11.1-24.8,24.8-24.8h24.8v231.2h379.9V99.1h24.8c13.7,0,24.8,11.1,24.8,24.8V363.4z M495.5,363.4"
		/>
	<path d="M198.2,27.9v142.3l142.3-71.2L198.2,27.9z M214.7,54.7l88.9,44.4l-88.9,44.4V54.7z M214.7,54.7"/>
	<path d="M247.7,198.2v-16.5h-16.5v16.5h-66.1v16.5h66.1v16.5h16.5v-16.5h165.2v-16.5H247.7z M247.7,198.2"/>
	<rect x="99.1" y="189.9" width="16.5" height="33"/>
	<rect x="132.1" y="189.9" width="16.5" height="33"/>
	<path d="M123.9,247.7c-13.7,0-24.8,11.1-24.8,24.8c0,13.7,11.1,24.8,24.8,24.8s24.8-11.1,24.8-24.8
		C148.6,258.9,137.5,247.7,123.9,247.7L123.9,247.7z M123.9,280.8c-4.6,0-8.3-3.7-8.3-8.3c0-4.6,3.7-8.3,8.3-8.3
		c4.6,0,8.3,3.7,8.3,8.3C132.1,277.1,128.4,280.8,123.9,280.8L123.9,280.8z M123.9,280.8"/>
	<path d="M189.9,247.7c-13.7,0-24.8,11.1-24.8,24.8c0,13.7,11.1,24.8,24.8,24.8s24.8-11.1,24.8-24.8
		C214.7,258.9,203.6,247.7,189.9,247.7L189.9,247.7z M189.9,280.8c-4.6,0-8.3-3.7-8.3-8.3c0-4.6,3.7-8.3,8.3-8.3
		c4.6,0,8.3,3.7,8.3,8.3C198.2,277.1,194.5,280.8,189.9,280.8L189.9,280.8z M189.9,280.8"/>
</g>
</svg>
