<?xml version="1.0" encoding="utf-8"?>
<!-- Generator: Adobe Illustrator 21.0.0, SVG Export Plug-In . SVG Version: 6.00 Build 0)  -->
<svg version="1.1" id="Слой_1" xmlns="http://www.w3.org/2000/svg" xmlns:xlink="http://www.w3.org/1999/xlink" x="0px" y="0px"
	 viewBox="0 0 512 512" style="enable-background:new 0 0 512 512;" xml:space="preserve" fill="#158cfd">
<g>
	<path d="M404.6,117.4l-31.1-7.8c-1.9-5.7-4.2-11.2-6.8-16.5l16.5-27.5L339,21.5l-27.5,16.5c-5.3-2.6-10.8-4.9-16.5-6.8L287.2,0
		h-62.4L217,31.1c-5.7,1.9-11.2,4.2-16.5,6.8L173,21.5l-44.1,44.1l16.5,27.5c-2.6,5.3-4.9,10.8-6.8,16.5l-31.1,7.8v62.4l14.8,3.7
		c-7,14.5-11.7,29.8-13.6,45.6c-4.5,37.2,4.8,74.3,26.3,104.5c14.5,20.3,22.1,45.8,22.1,73.5h0.3c0.6,5.4,2.8,10.2,6.2,14
		c-4,4.4-6.4,10.2-6.4,16.5c0,13.2,10.4,23.9,23.4,24.6c13,29.9,42.7,49.7,75.7,49.7c33,0,62.7-19.8,75.7-49.7
		c13-0.8,23.4-11.5,23.4-24.6c0-6.4-2.5-12.1-6.4-16.5c3.9-4.3,6.3-9.9,6.4-16.2h0c0-26.6,7.5-51,21.6-70.5
		c18.3-25.4,28-55.4,28-86.7c0-22.2-5.1-44.2-14.7-64.2l14.7-3.7V117.4z M256,495.5c-23.8,0-45.4-12.9-57.1-33h114.2
		C301.4,482.6,279.8,495.5,256,495.5L256,495.5z M330.3,445.9H181.7c-4.6,0-8.3-3.7-8.3-8.3c0-4.6,3.7-8.3,8.3-8.3h148.6
		c4.6,0,8.3,3.7,8.3,8.3C338.6,442.2,334.9,445.9,330.3,445.9L330.3,445.9z M330.3,412.9H181.7c-4.6,0-8.3-3.7-8.3-8.3
		c0-4.6,3.7-8.3,8.3-8.3h148.6c4.6,0,8.3,3.7,8.3,8.3C338.6,409.2,334.9,412.9,330.3,412.9L330.3,412.9z M363.3,324.8
		c-11.9,16.5-19.7,36-22.9,57.2c-3.1-1.4-6.4-2.2-10-2.2H181.7c-3.7,0-7.1,0.9-10.3,2.3c-3.4-21.5-11.2-41.3-23.2-58.1
		c-19.1-26.9-27.4-59.9-23.3-93c1.8-15.1,6.5-29.6,13.6-43.4c1.9,5.7,4.1,11.2,6.8,16.4l-16.5,27.5l44.1,44.2l27.5-16.5
		c5.3,2.6,10.8,4.9,16.5,6.8l7.8,31.1h6.4v33h16.5v-33h16.5v33h16.5v-33h6.4l7.8-31.1c5.7-1.9,11.2-4.2,16.5-6.8l27.5,16.5
		l44.1-44.2l-16.5-27.5c2.6-5.3,4.9-10.8,6.8-16.5l0.1,0c9.5,18.6,14.6,39.2,14.6,60.1C388.1,275.6,379.5,302.3,363.3,324.8
		L363.3,324.8z M388.1,167l-27.8,7l-1.3,4.6c-2.2,7.7-5.3,15.1-9,21.9l-2.3,4.2l14.7,24.5L336.5,255l-24.5-14.7l-4.2,2.3
		c-6.8,3.7-14.2,6.8-21.9,9l-4.6,1.3l-7,27.7h-36.7l-7-27.8l-4.6-1.3c-7.7-2.2-15.1-5.3-21.9-9l-4.2-2.3L175.5,255l-25.9-25.9
		l14.7-24.5l-2.3-4.2c-3.8-6.8-6.8-14.2-9-21.9l-1.3-4.6l-27.8-7v-36.7l27.8-7l1.3-4.6c2.2-7.7,5.3-15.1,9-21.9l2.3-4.2l-14.7-24.5
		l25.9-25.9l24.5,14.7l4.2-2.3c6.8-3.7,14.2-6.8,21.9-9l4.6-1.3l7-27.7h36.7l7,27.8l4.6,1.3c7.7,2.2,15.1,5.3,21.9,9l4.2,2.3
		l24.5-14.7l25.9,25.9l-14.7,24.5l2.3,4.2c3.8,6.8,6.8,14.2,9,21.9l1.3,4.6l27.8,7V167z M388.1,167"/>
	<path d="M256,57.8c-50.1,0-90.8,40.8-90.8,90.8c0,50.1,40.8,90.8,90.8,90.8c50.1,0,90.8-40.8,90.8-90.8
		C346.8,98.6,306.1,57.8,256,57.8L256,57.8z M256,223c-41,0-74.3-33.3-74.3-74.3c0-41,33.3-74.3,74.3-74.3c41,0,74.3,33.3,74.3,74.3
		C330.3,189.6,297,223,256,223L256,223z M256,223"/>
	<path d="M256,140.4c-4.5,0-8.3-3.7-8.3-8.3c0-4.6,3.7-8.3,8.3-8.3c4.6,0,8.3,3.7,8.3,8.3h16.5c0-10.8-6.9-19.8-16.5-23.3v-18h-16.5
		v18c-9.6,3.4-16.5,12.5-16.5,23.3c0,13.7,11.1,24.8,24.8,24.8c4.6,0,8.3,3.7,8.3,8.3c0,4.6-3.7,8.3-8.3,8.3c-4.5,0-8.3-3.7-8.3-8.3
		h-16.5c0,10.8,6.9,19.8,16.5,23.3v18h16.5v-18c9.6-3.4,16.5-12.5,16.5-23.3C280.8,151.5,269.7,140.4,256,140.4L256,140.4z
		 M256,140.4"/>
	<rect x="421.2" y="140.4" width="16.5" height="16.5"/>
	<rect x="454.2" y="140.4" width="16.5" height="16.5"/>
	<rect x="487.2" y="140.4" width="16.5" height="16.5"/>
	<rect x="8.3" y="140.4" width="16.5" height="16.5"/>
	<rect x="41.3" y="140.4" width="16.5" height="16.5"/>
	<rect x="74.3" y="140.4" width="16.5" height="16.5"/>
	<rect x="264.3" y="346.8" width="16.5" height="16.5"/>
	<rect x="231.2" y="346.8" width="16.5" height="16.5"/>
</g>
</svg>
