<?xml version="1.0" encoding="utf-8"?>
<!-- Generator: Adobe Illustrator 21.0.0, SVG Export Plug-In . SVG Version: 6.00 Build 0)  -->
<svg version="1.1" id="Слой_1" xmlns="http://www.w3.org/2000/svg" xmlns:xlink="http://www.w3.org/1999/xlink" x="0px" y="0px"
	 viewBox="0 0 512 512" style="enable-background:new 0 0 512 512;" xml:space="preserve" fill="#158cfd">
<g>
	<path d="M256,115.6c-4.5,0-8.3-3.7-8.3-8.3c0-4.6,3.7-8.3,8.3-8.3c4.6,0,8.3,3.7,8.3,8.3h16.5c0-10.8-6.9-19.8-16.5-23.3v-18h-16.5
		v18c-9.6,3.4-16.5,12.5-16.5,23.3c0,13.7,11.1,24.8,24.8,24.8c4.6,0,8.3,3.7,8.3,8.3c0,4.6-3.7,8.3-8.3,8.3c-4.5,0-8.3-3.7-8.3-8.3
		h-16.5c0,10.8,6.9,19.8,16.5,23.3v18h16.5v-18c9.6-3.4,16.5-12.5,16.5-23.3C280.8,126.7,269.7,115.6,256,115.6L256,115.6z
		 M256,115.6"/>
	<path d="M332.5,172.9c9.4-14.6,14.4-31.6,14.4-49.1c0-50.1-40.8-90.8-90.8-90.8c-50.1,0-90.8,40.8-90.8,90.8s40.8,90.8,90.8,90.8
		c24.9,0,49-10.4,66.1-28.5l-12-11.3c-14.2,15-33.4,23.3-54.1,23.3c-41,0-74.3-33.3-74.3-74.3S215,49.5,256,49.5
		c41,0,74.3,33.3,74.3,74.3c0,14.3-4.1,28.2-11.7,40.1L332.5,172.9z M332.5,172.9"/>
	<path d="M512,247.7V0H0v247.7h247.7v100c-8.8-9-20.4-15.2-33.4-16.9c-3.9-37.4-35.6-66.6-73.9-66.6H66.1v8.3
		c0,41,33.3,74.3,74.3,74.3h33v-16.5h-33c-29.1,0-53.2-21.6-57.2-49.5h57.2c31.9,0,57.8,25.9,57.8,57.8v8.3h8.3
		c19.9,0,36.6,14.2,40.5,33h-81.7v66.1h17.5l8.3,66.1h130.2l8.3-66.1h17.5v-66.1h-81.7c3.8-18.8,20.5-33,40.5-33h8.3v-8.3
		c0-31.9,25.9-57.8,57.8-57.8h57.2c-4,28-28.1,49.5-57.2,49.5h-33v16.5h33c41,0,74.3-33.3,74.3-74.3v-8.3h-74.3
		c-38.4,0-70,29.2-73.9,66.6c-13,1.8-24.7,8-33.4,16.9v-100H512z M306.5,495.5h-101l-2.1-16.5h77.4v-16.5h-79.4l-2.1-16.5h113.4
		L306.5,495.5z M330.3,396.4v33H181.7v-33H330.3z M16.5,231.2V16.5h479v214.7H16.5z M16.5,231.2"/>
	<path d="M421.2,33v16.5h41.3v41.3H479V33H421.2z M421.2,33"/>
	<path d="M33,33v57.8h16.5V49.5h41.3V33H33z M33,33"/>
	<path d="M462.4,156.9v41.3h-41.3v16.5H479v-57.8H462.4z M462.4,156.9"/>
	<path d="M49.5,198.2v-41.3H33v57.8h57.8v-16.5H49.5z M49.5,198.2"/>
	<rect x="66.1" y="396.4" width="16.5" height="16.5"/>
	<rect x="49.5" y="412.9" width="16.5" height="16.5"/>
	<rect x="66.1" y="429.4" width="16.5" height="16.5"/>
	<rect x="82.6" y="412.9" width="16.5" height="16.5"/>
	<rect x="421.2" y="462.4" width="16.5" height="16.5"/>
	<rect x="404.6" y="479" width="16.5" height="16.5"/>
	<rect x="421.2" y="495.5" width="16.5" height="16.5"/>
	<rect x="437.7" y="479" width="16.5" height="16.5"/>
	<rect x="297.3" y="115.6" width="16.5" height="16.5"/>
	<rect x="198.2" y="115.6" width="16.5" height="16.5"/>
</g>
</svg>
