<?xml version="1.0" encoding="utf-8"?>
<!-- Generator: Adobe Illustrator 21.0.0, SVG Export Plug-In . SVG Version: 6.00 Build 0)  -->
<svg version="1.1" id="Слой_1" xmlns="http://www.w3.org/2000/svg" xmlns:xlink="http://www.w3.org/1999/xlink" x="0px" y="0px"
	 viewBox="0 0 512 512" style="enable-background:new 0 0 512 512;" xml:space="preserve" fill="#158cfd">
<g>
	<rect x="223" y="462.4" width="66.1" height="16.5"/>
	<path d="M453.5,330.4c5.8-10,8.9-21.5,8.9-33.1c0-36.4-29.6-66.1-66.1-66.1c-36.4,0-66.1,29.6-66.1,66.1
		c0,36.4,29.6,66.1,66.1,66.1c17.6,0,34.2-6.9,46.7-19.4l-11.7-11.7c-9.4,9.4-21.8,14.5-35,14.5c-27.3,0-49.5-22.2-49.5-49.6
		c0-27.3,22.2-49.5,49.5-49.5c27.3,0,49.6,22.2,49.6,49.5c0,8.7-2.3,17.3-6.7,24.8L453.5,330.4z M453.5,330.4"/>
	<path d="M512,319.7v-44.8l-21.2-7.3c-1.7-5.5-4-10.9-6.6-16l9.8-20.1l-31.7-31.7l-20.2,9.8c-5.1-2.7-10.5-4.9-16-6.6l-7.4-21.2
		h-14.1V41.3c0-22.8-18.5-41.3-41.3-41.3H148.6c-22.8,0-41.3,18.5-41.3,41.3v41.3H0v214.7h107.4v173.4c0,22.8,18.5,41.3,41.3,41.3
		h214.7c22.8,0,41.3-18.5,41.3-41.3v-57.8h14.1l7.4-21.2c5.5-1.8,10.9-4,16-6.6l20.2,9.8l31.7-31.7l-9.8-20.2
		c2.7-5.1,4.9-10.5,6.6-16L512,319.7z M123.9,41.3c0-13.7,11.1-24.8,24.8-24.8h214.7c13.7,0,24.8,11.1,24.8,24.8v8.3H123.9V41.3z
		 M16.5,280.8V99.1h231.2v181.7H16.5z M388.1,470.7c0,13.7-11.1,24.8-24.8,24.8H148.6c-13.7,0-24.8-11.1-24.8-24.8v-24.8h264.3
		V470.7z M388.1,429.4H123.9V297.3h140.4V82.6H123.9V66.1h264.3v115.6H374l-7.4,21.2c-5.5,1.7-10.9,4-16,6.6l-20.2-9.8l-31.7,31.7
		l9.8,20.2c-2.7,5.1-4.9,10.5-6.6,16l-21.2,7.4v44.8l21.2,7.3c1.7,5.5,4,10.9,6.6,16l-9.8,20.2l31.7,31.7l20.2-9.8
		c5.1,2.7,10.5,4.9,16,6.6l7.4,21.2h14.1V429.4z M477.2,314.3l-1.1,4.2c-1.9,7.1-4.7,13.9-8.3,20.2l-2.2,3.8l8.4,17.4l-15,15
		l-17.4-8.4l-3.8,2.2c-6.3,3.6-13.1,6.5-20.2,8.4l-4.2,1.1l-6.4,18.2h-21.3l-6.3-18.2l-4.2-1.1c-7.1-1.9-13.9-4.7-20.2-8.4l-3.8-2.2
		l-17.4,8.4l-15.1-15l8.4-17.4l-2.2-3.8c-3.6-6.3-6.4-13.1-8.3-20.2l-1.1-4.2l-18.3-6.3v-21.3l18.3-6.3l1.1-4.2
		c1.9-7.1,4.7-13.9,8.3-20.2l2.2-3.8l-8.4-17.4l15-15l17.4,8.4l3.8-2.2c6.3-3.6,13.1-6.5,20.2-8.4l4.2-1.1l6.4-18.2H407l6.3,18.2
		l4.2,1.1c7.1,1.9,13.9,4.7,20.2,8.4l3.8,2.2l17.4-8.4l15,15l-8.4,17.4l2.2,3.8c3.6,6.3,6.5,13.1,8.3,20.2l1.1,4.2l18.3,6.3v21.3
		L477.2,314.3z M477.2,314.3"/>
	<path d="M396.4,264.3c-18.2,0-33,14.8-33,33c0,18.2,14.8,33,33,33v-16.5c-9.1,0-16.5-7.4-16.5-16.5c0-9.1,7.4-16.5,16.5-16.5
		c9.1,0,16.5,7.4,16.5,16.5h16.5C429.4,279.1,414.6,264.3,396.4,264.3L396.4,264.3z M396.4,264.3"/>
	<path d="M99.1,181.7h16.5c0-9.1,7.4-16.5,16.5-16.5v-16.5C113.9,148.6,99.1,163.5,99.1,181.7L99.1,181.7z M99.1,181.7"/>
	<path d="M196.7,167.5c-6.6-29.9-33.5-51.9-64.5-51.9c-30.8,0-57.5,21.7-64.4,51.9C47.3,173.9,33,192.9,33,214.7
		c0,27.3,22.2,49.6,49.5,49.6h99.1c27.3,0,49.5-22.2,49.5-49.6C231.2,192.6,216.7,173.8,196.7,167.5L196.7,167.5z M181.7,247.7H82.6
		c-18.2,0-33-14.8-33-33c0-15.8,11.3-29.4,26.9-32.4l5.9-1.9l0.8-5.8c3.5-24.2,24.5-42.5,49-42.5c21.2,0,39.9,13.7,46.7,33.1
		c-9.8,0.5-19,3.9-26.9,9.8l9.9,13.2c5.7-4.3,12.6-6.6,19.8-6.6c18.2,0,33,14.8,33,33C214.7,232.9,199.9,247.7,181.7,247.7
		L181.7,247.7z M181.7,247.7"/>
</g>
</svg>
