<?xml version="1.0" encoding="utf-8"?>
<!-- Generator: Adobe Illustrator 21.0.0, SVG Export Plug-In . SVG Version: 6.00 Build 0)  -->
<svg version="1.1" id="Слой_1" xmlns="http://www.w3.org/2000/svg" xmlns:xlink="http://www.w3.org/1999/xlink" x="0px" y="0px"
	 viewBox="0 0 396.8 396.8" style="enable-background:new 0 0 396.8 396.8;" xml:space="preserve" fill="#158cfd">
<g>
	<path d="M396.8,198.4C396.8,89,307.8,0,198.4,0c-34.3,0-67.7,8.9-97.3,25.6H76.8V0H38.4v81.2C13.3,115.4,0,155.8,0,198.4
		c0,109.4,89,198.4,198.4,198.4c24.4,0,48.2-4.4,70.7-13c12.9,8.2,28.1,13,44.5,13c20,0,39.3-7.2,54.3-20.2l-8.4-9.7
		c-12.8,11-29.1,17.1-46,17.1c-38.8,0-70.4-31.6-70.4-70.4c0-38.8,31.6-70.4,70.4-70.4c38.8,0,70.4,31.6,70.4,70.4
		c0,16.2-5.4,31.5-15.5,44.1l10,8c11.8-14.7,18.3-33.2,18.3-52.1c0-16.4-4.8-31.6-13-44.5C392.4,246.5,396.8,222.8,396.8,198.4
		L396.8,198.4z M102.4,64h12.8v89.6h-12.8V64z M76.8,38.4h12.8v115.2H76.8V38.4z M51.2,12.8H64v140.8H51.2V12.8z M192,383.8
		c-97.3-3.3-175.7-81.8-179-179h179V383.8z M192,192H13.1c1-31.2,9.7-60.9,25.3-87.5v61.9h140.8v-64h-25.6V76.8H128V51.2h-25.6V39.6
		C129.5,23.2,160.2,14.1,192,13V192z M128,153.6v-64h12.8v64H128z M153.6,153.6v-38.4h12.8v38.4H153.6z M383.8,192h-54.8l47.1-47.1
		C380.6,159.9,383.3,175.7,383.8,192L383.8,192z M351.6,93.8l-71.5,71.5l9.1,9.1l69.4-69.4c5,8.5,9.3,17.4,12.9,26.6L310.9,192
		h-39.5l8.3-8.3l-9.1-9.1L253.4,192h-39.5L334,71.9C340.4,78.7,346.3,86,351.6,93.8L351.6,93.8z M204.8,13
		c16.3,0.6,32.1,3.2,47.1,7.7l-47.1,47.1V13z M204.8,143.4l77.8-77.8l-9-9.1l-68.7,68.7V85.8l60.5-60.5c9.3,3.6,18.2,7.9,26.6,12.9
		l-10.3,10.3l9.1,9.1L303,45.2c7.7,5.3,15.1,11.2,21.9,17.6L204.8,182.9V143.4z M313.6,230.4c-45.9,0-83.2,37.3-83.2,83.2
		c0,24.1,10.3,45.7,26.7,60.9c-16.9,5.6-34.4,8.7-52.3,9.3V204.8h179.1c-0.6,17.9-3.7,35.4-9.3,52.3
		C359.3,240.7,337.7,230.4,313.6,230.4L313.6,230.4z M313.6,230.4"/>
	<path d="M78.7,309.1l76.8-76.8l9.1,9.1l-76.8,76.8L78.7,309.1z M78.7,309.1"/>
	<path d="M147.2,281.6c-10.6,0-19.2,8.6-19.2,19.2c0,10.6,8.6,19.2,19.2,19.2s19.2-8.6,19.2-19.2
		C166.4,290.2,157.8,281.6,147.2,281.6L147.2,281.6z M147.2,307.2c-3.5,0-6.4-2.9-6.4-6.4c0-3.5,2.9-6.4,6.4-6.4
		c3.5,0,6.4,2.9,6.4,6.4C153.6,304.3,150.7,307.2,147.2,307.2L147.2,307.2z M147.2,307.2"/>
	<path d="M96,230.4c-10.6,0-19.2,8.6-19.2,19.2c0,10.6,8.6,19.2,19.2,19.2s19.2-8.6,19.2-19.2C115.2,239,106.6,230.4,96,230.4
		L96,230.4z M96,256c-3.5,0-6.4-2.9-6.4-6.4c0-3.5,2.9-6.4,6.4-6.4s6.4,2.9,6.4,6.4C102.4,253.1,99.5,256,96,256L96,256z M96,256"/>
	<path d="M313.6,307.2c-7.1,0-12.8-5.7-12.8-12.8c0-7.1,5.7-12.8,12.8-12.8c7.1,0,12.8,5.7,12.8,12.8h12.8
		c0-11.9-8.2-21.8-19.2-24.7V256h-12.8v13.7c-11,2.9-19.2,12.8-19.2,24.7c0,14.1,11.5,25.6,25.6,25.6c7.1,0,12.8,5.7,12.8,12.8
		c0,7.1-5.7,12.8-12.8,12.8c-7.1,0-12.8-5.7-12.8-12.8H288c0,11.9,8.2,21.8,19.2,24.7v13.7H320v-13.7c11-2.9,19.2-12.8,19.2-24.7
		C339.2,318.7,327.7,307.2,313.6,307.2L313.6,307.2z M313.6,307.2"/>
	<rect x="358.4" y="307.2" width="12.8" height="12.8"/>
	<rect x="256" y="307.2" width="12.8" height="12.8"/>
</g>
</svg>
