<?xml version="1.0" encoding="utf-8"?>
<!-- Generator: Adobe Illustrator 21.0.0, SVG Export Plug-In . SVG Version: 6.00 Build 0)  -->
<svg version="1.1" id="Слой_1" xmlns="http://www.w3.org/2000/svg" xmlns:xlink="http://www.w3.org/1999/xlink" x="0px" y="0px"
	 viewBox="0 0 527 136" style="enable-background:new 0 0 527 136;" xml:space="preserve">
<style type="text/css">
	.st0{fill:none;}
	.st1{opacity:0.5;}
</style>
<g>
	<path fill="#fff" d="M205.7,47.3c-22,0-39.8,9.3-39.8,20.8S183.7,89,205.7,89s39.8-9.3,39.8-20.8S227.7,47.3,205.7,47.3z M205.7,82.4
		c-15,0-27.2-6.4-27.2-14.2c0-7.9,12.2-14.2,27.2-14.2s27.2,6.4,27.2,14.2C232.8,76,220.7,82.4,205.7,82.4z"/>
	<g>
		<circle fill="#fff" class="st0" cx="81.5" cy="57.1" r="38.9"/>
		<g class="st1">
			<path fill="#fff" d="M29.4,57.1c0-8.4,2-16.3,5.5-23.4C18.4,42.3,7,59.6,7,79.5C7,108,30.1,131,58.5,131c19.4,0,36.4-10.8,45.1-26.7
				c-6.7,3.1-14.2,4.9-22.1,4.9C52.8,109.2,29.4,85.9,29.4,57.1z"/>
			<path fill="#fff" d="M58.5,28c-0.9,0-1.9,0-2.8,0.1c-8,7.1-13,17.5-13,29C42.7,78.6,60.1,96,81.5,96c11.1,0,21.2-4.7,28.2-12.2
				c0.1-1.4,0.2-2.8,0.2-4.2C110,51.1,86.9,28,58.5,28z"/>
		</g>
		<path fill="#fff" d="M81.5,5C61.1,5,43.4,16.8,34.9,33.9c6.3-3.3,13.3-5.3,20.8-5.7c6.9-6.1,15.9-9.9,25.9-9.9c21.5,0,38.9,17.4,38.9,38.9
			c0,10.3-4,19.7-10.6,26.7c-0.6,7.4-2.8,14.4-6.3,20.6c17.8-8.3,30.2-26.3,30.2-47.3C133.7,28.3,110.3,5,81.5,5z"/>
	</g>
	<polygon fill="#fff" points="291.6,89 291.6,47.3 303,47.3 346.5,75.7 346.5,47.3 357.3,47.3 357.3,89 345.9,89 303,61.8 303,89 	"/>
	<polygon fill="#fff" points="409.7,47.3 409.7,89 462.1,89 462.1,80.8 420.5,80.8 420.5,47.3 	"/>
	<rect fill="#fff" x="508.3" y="47.3" width="10.7" height="41.7"/>
</g>
</svg>
