<?xml version="1.0" encoding="utf-8"?>
<!-- Generator: Adobe Illustrator 21.0.0, SVG Export Plug-In . SVG Version: 6.00 Build 0)  -->
<svg version="1.1" id="Слой_1" xmlns="http://www.w3.org/2000/svg" xmlns:xlink="http://www.w3.org/1999/xlink" x="0px" y="0px"
	 viewBox="0 0 512 512" style="enable-background:new 0 0 512 512;" xml:space="preserve" fill="#158cfd">
<g>
	<path d="M256,132.1c-68.3,0-123.9,55.6-123.9,123.9c0,68.3,55.6,123.9,123.9,123.9c68.3,0,123.9-55.6,123.9-123.9
		C379.9,187.7,324.3,132.1,256,132.1L256,132.1z M231.8,151.5c-6.9,7.6-14.7,17.5-21.7,29.7c-9-3.7-15.3-7.9-18.9-10.6
		C203.1,161.6,216.8,155,231.8,151.5L231.8,151.5z M178.6,181.8c3.9,3.2,11.9,9,24,14.2c-6.5,14.8-11.2,32.1-12.3,51.7h-41.3
		C151,222.2,161.9,199.2,178.6,181.8L178.6,181.8z M149.1,264.3h41.3c1.1,19.7,5.8,37,12.3,51.7c-12.1,5.2-20.1,11-24,14.3
		C161.9,312.8,151,289.8,149.1,264.3L149.1,264.3z M191.2,341.4c3.6-2.7,9.9-6.8,18.9-10.6c7,12.2,14.8,22.1,21.7,29.7
		C216.8,357,203.1,350.4,191.2,341.4L191.2,341.4z M247.7,353.2c-6.4-6.6-14.3-15.9-21.4-27.7c6.4-1.6,13.5-2.7,21.4-3.2V353.2z
		 M247.7,264.3v41.5c-11.1,0.6-20.8,2.4-29.4,4.7c-6-13.2-10.4-28.7-11.5-46.3H247.7z M247.7,247.7h-40.9c1.1-17.5,5.6-33,11.6-46.3
		c8.5,2.4,18.3,4.1,29.3,4.7V247.7z M247.7,189.7c-7.9-0.5-15-1.6-21.3-3.2c7.1-11.7,14.9-21,21.3-27.6V189.7z M362.9,247.7h-41.2
		c-1.1-19.7-5.8-37-12.3-51.7c12.1-5.2,20.1-11,24-14.2C350.1,199.2,361,222.2,362.9,247.7L362.9,247.7z M320.8,170.6
		c-3.6,2.7-9.9,6.8-18.9,10.6c-7-12.2-14.8-22.1-21.7-29.7C295.2,155,308.9,161.6,320.8,170.6L320.8,170.6z M264.3,158.8
		c6.4,6.6,14.3,15.9,21.4,27.7c-6.4,1.6-13.5,2.7-21.4,3.2V158.8z M264.3,206.2c11.1-0.6,20.8-2.4,29.4-4.7
		c6,13.2,10.4,28.7,11.5,46.3h-40.9V206.2z M264.3,264.3h40.9c-1.1,17.5-5.6,33-11.6,46.3c-8.5-2.3-18.2-4.1-29.3-4.7V264.3z
		 M264.3,322.3c7.9,0.5,15,1.6,21.3,3.2c-7.1,11.7-14.9,21.1-21.3,27.6V322.3z M280.2,360.5c7-7.6,14.7-17.5,21.7-29.7
		c9,3.7,15.3,7.8,18.9,10.6C308.9,350.4,295.2,357,280.2,360.5L280.2,360.5z M333.4,330.2c-3.9-3.2-11.9-9-24-14.3
		c6.5-14.8,11.2-32.1,12.3-51.7h41.3C361,289.8,350.1,312.8,333.4,330.2L333.4,330.2z M333.4,330.2"/>
	<path d="M470.7,214.7c-2.1,0-4.1,0.3-6.2,0.6l-29.9-81.3c11.7-7.3,19.6-20.2,19.6-35c0-22.8-18.5-41.3-41.3-41.3
		c-14.8,0-27.7,7.9-35,19.6l-81.3-29.9c0.3-2,0.6-4.1,0.6-6.2C297.3,18.5,278.8,0,256,0c-22.8,0-41.3,18.5-41.3,41.3
		c0,2.1,0.3,4.1,0.6,6.2l-81.3,29.9c-7.3-11.7-20.2-19.6-35-19.6c-22.8,0-41.3,18.5-41.3,41.3c0,14.8,7.9,27.7,19.6,35l-29.9,81.3
		c-2-0.3-4.1-0.6-6.2-0.6C18.5,214.7,0,233.2,0,256c0,22.8,18.5,41.3,41.3,41.3c2.1,0,4.1-0.3,6.2-0.6l29.9,81.3
		c-11.7,7.3-19.6,20.2-19.6,35c0,22.8,18.5,41.3,41.3,41.3c14.8,0,27.7-7.9,35-19.6l81.3,29.9c-0.3,2-0.6,4.1-0.6,6.2
		c0,22.8,18.5,41.3,41.3,41.3c22.8,0,41.3-18.5,41.3-41.3c0-2.1-0.3-4.1-0.6-6.2l81.3-29.9c7.3,11.7,20.2,19.6,35,19.6
		c22.8,0,41.3-18.5,41.3-41.3c0-14.8-7.9-27.7-19.6-35l29.9-81.3c2,0.3,4.1,0.6,6.2,0.6c22.8,0,41.3-18.5,41.3-41.3
		C512,233.2,493.5,214.7,470.7,214.7L470.7,214.7z M412.9,74.3c13.7,0,24.8,11.1,24.8,24.8c0,13.7-11.1,24.8-24.8,24.8
		c-13.7,0-24.8-11.1-24.8-24.8C388.1,85.4,399.2,74.3,412.9,74.3L412.9,74.3z M256,16.5c13.7,0,24.8,11.1,24.8,24.8
		c0,13.7-11.1,24.8-24.8,24.8c-13.7,0-24.8-11.1-24.8-24.8C231.2,27.6,242.3,16.5,256,16.5L256,16.5z M74.3,99.1
		c0-13.7,11.1-24.8,24.8-24.8c13.7,0,24.8,11.1,24.8,24.8c0,13.7-11.1,24.8-24.8,24.8C85.4,123.9,74.3,112.8,74.3,99.1L74.3,99.1z
		 M41.3,280.8c-13.7,0-24.8-11.1-24.8-24.8c0-13.7,11.1-24.8,24.8-24.8c13.7,0,24.8,11.1,24.8,24.8
		C66.1,269.7,54.9,280.8,41.3,280.8L41.3,280.8z M99.1,437.7c-13.7,0-24.8-11.1-24.8-24.8s11.1-24.8,24.8-24.8
		c13.7,0,24.8,11.1,24.8,24.8S112.8,437.7,99.1,437.7L99.1,437.7z M256,495.5c-13.7,0-24.8-11.1-24.8-24.8
		c0-13.7,11.1-24.8,24.8-24.8c13.7,0,24.8,11.1,24.8,24.8C280.8,484.4,269.7,495.5,256,495.5L256,495.5z M437.7,412.9
		c0,13.7-11.1,24.8-24.8,24.8c-13.7,0-24.8-11.1-24.8-24.8s11.1-24.8,24.8-24.8C426.6,388.1,437.7,399.2,437.7,412.9L437.7,412.9z
		 M419.1,372.2c-2-0.3-4.1-0.6-6.2-0.6c-8.4,0-16.2,2.6-22.7,6.9l-23.2-23.2l-11.7,11.7l23.2,23.2c-4.3,6.5-6.9,14.3-6.9,22.7
		c0,2.1,0.3,4.1,0.6,6.2L291,449c-5.9-9.5-15.4-16.5-26.7-18.8v-25.6h-16.5v25.6c-11.3,2.3-20.8,9.3-26.7,18.8l-81.3-29.9
		c0.3-2,0.6-4.1,0.6-6.2c0-8.4-2.6-16.2-6.9-22.7l23.2-23.2L145,355.3l-23.2,23.2c-6.5-4.3-14.3-6.9-22.7-6.9
		c-2.1,0-4.1,0.3-6.2,0.6L63,291c9.5-5.9,16.5-15.4,18.8-26.7h25.6v-16.5H81.7c-2.3-11.3-9.3-20.8-18.8-26.7l29.9-81.3
		c2,0.3,4.1,0.6,6.2,0.6c8.4,0,16.2-2.6,22.7-6.9l23.2,23.2l11.7-11.7l-23.2-23.2c4.3-6.5,6.9-14.3,6.9-22.7c0-2.1-0.3-4.1-0.6-6.2
		L221,63c5.9,9.5,15.4,16.5,26.7,18.8v25.6h16.5V81.7c11.3-2.3,20.8-9.3,26.7-18.8l81.3,29.9c-0.3,2-0.6,4.1-0.6,6.2
		c0,8.4,2.6,16.2,6.9,22.7l-23.2,23.2l11.7,11.7l23.2-23.2c6.5,4.3,14.3,6.9,22.7,6.9c2.1,0,4.1-0.3,6.2-0.6L449,221
		c-9.5,5.9-16.5,15.4-18.8,26.7h-25.6v16.5h25.6c2.3,11.3,9.3,20.8,18.8,26.7L419.1,372.2z M470.7,280.8
		c-13.7,0-24.8-11.1-24.8-24.8c0-13.7,11.1-24.8,24.8-24.8c13.7,0,24.8,11.1,24.8,24.8C495.5,269.7,484.4,280.8,470.7,280.8
		L470.7,280.8z M470.7,280.8"/>
</g>
</svg>
