<?xml version="1.0" encoding="utf-8"?>
<!-- Generator: Adobe Illustrator 21.0.0, SVG Export Plug-In . SVG Version: 6.00 Build 0)  -->
<svg version="1.1" id="Слой_1" xmlns="http://www.w3.org/2000/svg" xmlns:xlink="http://www.w3.org/1999/xlink" x="0px" y="0px"
	 viewBox="0 0 512 512" style="enable-background:new 0 0 512 512;" xml:space="preserve" fill="#158cfd">
<g>
	<path d="M421.2,330.3h-5.8c-57,0-113.5,14.6-163.4,42.3l-4.2,2.4v13.1h-8.3c-13.7,0-24.8,11.1-24.8,24.8h-24.8
		c-13.7,0-24.8,11.1-24.8,24.8v33c0,13.7-11.1,24.8-24.8,24.8c-13.7,0-24.8-11.1-24.8-24.8V280.8h214.7v-47.4
		c17.3,9.2,36.9,14.4,57.8,14.4c68.3,0,123.9-55.6,123.9-123.9S456.4,0,388.1,0c-32.4,0-61.8,12.6-83.9,33H0v247.7h99.1v189.9
		c0,22.8,18.5,41.3,41.3,41.3c22.8,0,41.3-18.5,41.3-41.3v-33c0-4.6,3.7-8.3,8.3-8.3h24.8c0,13.7,11.1,24.8,24.8,24.8h8.3v13.1
		l4.2,2.4c49.8,27.7,106.3,42.3,163.4,42.3h5.8c50.1,0,90.8-40.8,90.8-90.8C512,371.1,471.2,330.3,421.2,330.3L421.2,330.3z
		 M409.9,229c6.7-7.7,14.5-17.8,21.7-29.9c9.1,3.7,16.3,7.8,20.7,10.5C440,219,425.6,225.7,409.9,229L409.9,229z M465.3,198.3
		c-3.9-2.7-13.1-8.5-25.8-13.9c7.4-15.4,12.9-33.1,14.2-52.4h41.3C493.1,157.8,482.1,180.9,465.3,198.3L465.3,198.3z M495.1,115.6
		h-41.3c-1.3-19.3-6.9-37-14.2-52.4c12.6-5.3,21.8-11.2,25.8-13.9C482.1,66.9,493.1,90,495.1,115.6L495.1,115.6z M452.4,38.1
		c-4.5,2.8-11.6,6.8-20.7,10.6c-7.2-12.1-15-22.2-21.7-29.9C425.6,22,440,28.8,452.4,38.1L452.4,38.1z M396.4,28.5
		c5.8,6.6,12.7,15.2,19.1,25.6c-6,1.6-12.4,2.8-19.1,3.3V28.5z M396.4,74c9.8-0.7,19-2.6,27.4-5.1c6.9,13.8,12.1,29.6,13.5,46.7
		h-40.8V74z M396.4,132.1h40.8c-1.3,17.1-6.6,32.9-13.5,46.7c-8.4-2.5-17.6-4.4-27.4-5.1V132.1z M396.4,190.3
		c6.7,0.6,13.1,1.8,19.1,3.4c-6.5,10.3-13.3,19-19.1,25.6V190.3z M323.9,209.7c4.5-2.8,11.6-6.8,20.7-10.6
		c7.2,12.1,15,22.2,21.7,29.9C350.6,225.7,336.2,219,323.9,209.7L323.9,209.7z M311,198.3c-16.9-17.5-27.8-40.6-29.8-66.2h41.3
		c1.3,19.3,6.9,37,14.2,52.4C324.1,189.8,314.9,195.6,311,198.3L311,198.3z M379.9,219.2c-5.8-6.6-12.7-15.2-19.1-25.6
		c6-1.6,12.4-2.8,19.1-3.3V219.2z M379.9,173.7c-9.8,0.7-19,2.6-27.4,5.1c-6.9-13.8-12.1-29.6-13.5-46.7h40.8V173.7z M379.9,115.6
		H339c1.3-17.1,6.6-32.9,13.5-46.7c8.4,2.5,17.6,4.4,27.4,5.1V115.6z M379.9,57.4c-6.7-0.6-13.1-1.8-19.1-3.4
		c6.5-10.3,13.3-19,19.1-25.6V57.4z M366.3,18.8c-6.7,7.7-14.5,17.8-21.7,29.9c-9.1-3.7-16.3-7.8-20.7-10.5
		C336.3,28.8,350.6,22,366.3,18.8L366.3,18.8z M311,49.4c3.9,2.7,13.1,8.5,25.8,13.9c-7.4,15.4-12.9,33.1-14.2,52.4h-41.3
		C283.2,90,294.1,66.9,311,49.4L311,49.4z M16.5,49.5h272.8c-10.9,14.4-18.8,31.2-22.5,49.6H16.5V49.5z M16.5,264.3V115.6h248.2
		c-0.2,2.7-0.4,5.5-0.4,8.3c0,40.5,19.7,76.5,49.9,99.1h-0.3v41.3H16.5z M247.7,437.7h-8.3c-4.6,0-8.3-3.7-8.3-8.3v-16.5
		c0-4.6,3.7-8.3,8.3-8.3h8.3V437.7z M264.3,384.8c21-11.2,43.2-19.9,66.1-26.3v37.9h-8.3c-10.8,0-19.8,6.9-23.3,16.5h-34.6V384.8z
		 M355.1,412.9c4.6,0,8.3,3.7,8.3,8.3c0,4.6-3.7,8.3-8.3,8.3h-33c-4.6,0-8.3-3.7-8.3-8.3c0-4.5,3.7-8.3,8.3-8.3H355.1z M330.3,483.8
		c-22.9-6.3-45.1-15-66.1-26.3v-28.1h34.6c3.4,9.6,12.5,16.5,23.3,16.5h8.3V483.8z M421.2,495.5h-5.8c-24.1,0-48.1-2.9-71.5-8.3h3
		v-41.3h8.3c13.7,0,24.8-11.1,24.8-24.8c0-13.7-11.1-24.8-24.8-24.8h-8.3v-41.3h-3c23.4-5.4,47.4-8.3,71.5-8.3h5.8
		c41,0,74.3,33.3,74.3,74.3C495.5,462.1,462.1,495.5,421.2,495.5L421.2,495.5z M421.2,495.5"/>
	<path d="M454.2,396.4c-13.7,0-24.8,11.1-24.8,24.8c0,13.7,11.1,24.8,24.8,24.8c13.7,0,24.8-11.1,24.8-24.8
		C479,407.5,467.9,396.4,454.2,396.4L454.2,396.4z M454.2,429.4c-4.6,0-8.3-3.7-8.3-8.3c0-4.5,3.7-8.3,8.3-8.3
		c4.6,0,8.3,3.7,8.3,8.3C462.4,425.7,458.7,429.4,454.2,429.4L454.2,429.4z M454.2,429.4"/>
	<path d="M33,132.1v82.6h99.1v-82.6H33z M115.6,198.2H49.5v-49.6h66.1V198.2z M115.6,198.2"/>
	<rect x="148.6" y="132.1" width="90.8" height="16.5"/>
	<rect x="148.6" y="165.2" width="90.8" height="16.5"/>
	<rect x="148.6" y="198.2" width="107.4" height="16.5"/>
	<rect x="280.8" y="231.2" width="16.5" height="16.5"/>
	<rect x="33" y="231.2" width="231.2" height="16.5"/>
	<rect x="33" y="66.1" width="16.5" height="16.5"/>
	<rect x="66.1" y="66.1" width="16.5" height="16.5"/>
	<rect x="99.1" y="66.1" width="16.5" height="16.5"/>
</g>
</svg>
